<?xml version="1.0" encoding="UTF-8" standalone="no"?>
<!-- Created with Inkscape (http://www.inkscape.org/) -->

<svg
   width="163.24789mm"
   height="209.55mm"
   viewBox="0 0 163.24789 209.55"
   version="1.1"
   id="svg1"
   xml:space="preserve"
   xmlns="http://www.w3.org/2000/svg"
   xmlns:svg="http://www.w3.org/2000/svg"><defs
     id="defs1" /><g
     id="layer1"
     style="fill:#f9f9f9"
     transform="translate(-23.590964,-41.87292)"><path
       style="fill:#f9f9f9"
       d="m 81.314146,250.56302 c -0.143881,-0.47295 -0.467514,-1.75287 -0.719184,-2.84428 -0.989581,-4.29147 -2.628914,-7.4563 -5.13773,-9.91871 -0.739546,-0.72586 -1.586975,-1.82037 -1.883176,-2.43224 -0.388759,-0.80307 -0.778925,-1.19183 -1.402792,-1.39772 -1.483095,-0.48947 -4.880706,-2.89427 -6.875814,-4.86666 -6.858963,-6.78084 -9.389654,-16.74229 -6.652731,-26.18684 1.513143,-5.22154 4.557323,-9.67419 8.915639,-13.04068 6.035007,-4.66163 14.239813,-6.18136 21.899704,-4.05638 7.254603,2.01256 13.821898,8.10771 16.393638,15.21507 2.41741,6.68083 2.0585,14.60989 -0.93014,20.549 -2.58498,5.13694 -6.375997,9.15697 -11.066844,11.73538 -1.37648,0.75661 -1.887832,1.20319 -2.180927,1.90466 -0.210575,0.50398 -1.192003,1.7712 -2.180951,2.81604 -2.259246,2.38694 -3.506862,4.92663 -4.624847,9.4145 -0.453138,1.81901 -0.919278,3.45612 -1.035866,3.63802 -0.116587,0.1819 -0.671967,0.33073 -1.234177,0.33073 -0.923199,0 -1.047535,-0.0833 -1.283802,-0.85989 z m -0.458118,-20.56481 c 0.373276,-0.14192 0.678683,-0.42046 0.678683,-0.61899 0,-0.77498 -2.515802,-1.30008 -3.437372,-0.71744 -0.509233,0.32195 -0.07124,0.80231 1.13393,1.24361 0.466528,0.17083 0.870248,0.31966 0.897155,0.33073 0.02691,0.0111 0.354329,-0.096 0.727604,-0.23791 z m 8.425609,-0.51356 c 0.818953,-0.31136 1.561615,-1.05315 1.368015,-1.3664 -0.204832,-0.33143 -2.677728,-0.30855 -3.311502,0.0306 -0.573619,0.30699 -0.688617,1.19815 -0.181044,1.40296 0.543595,0.21935 1.445936,0.19081 2.124531,-0.0672 z M 74.353726,227.2584 C 74.86052,226.64775 72.426869,224.7 71.15709,224.7 c -1.308498,0 -0.649044,1.46504 1.067566,2.3717 1.16075,0.61307 1.733528,0.6633 2.12907,0.1867 z m 11.969757,-1.59522 c 0.931436,-0.48889 2.050707,-0.96924 2.487269,-1.06744 1.634965,-0.36777 2.252483,-0.78095 3.069072,-2.05349 0.842884,-1.31353 2.332434,-2.34017 3.395324,-2.34017 0.38688,0 0.688586,-0.36317 1.104083,-1.32902 0.562431,-1.30741 1.806553,-2.63973 2.46498,-2.63973 0.184563,0 0.558879,0.24676 0.831815,0.54835 0.486774,0.53787 0.483764,0.57175 -0.157431,1.77425 -0.468808,0.87921 -0.968643,1.37887 -1.767364,1.76676 -0.612528,0.29747 -1.182982,0.73939 -1.267676,0.98205 -0.297803,0.85326 -1.256572,1.83375 -2.689336,2.75028 -1.531749,0.97985 -1.806623,1.75964 -0.677043,1.9207 0.886576,0.12642 2.132426,-0.76222 4.408321,-3.14438 3.570913,-3.73763 5.440463,-8.57783 5.440463,-14.08516 0,-10.17628 -7.808556,-18.85438 -18.263826,-20.29765 -8.059773,-1.11259 -16.705616,3.5586 -20.324661,10.98105 -1.634909,3.35311 -2.026359,5.18125 -2.01179,9.39542 0.0115,3.32697 0.09166,4.03469 0.603597,5.32914 0.789508,1.99631 1.573073,2.36037 3.343929,1.55365 0.800015,-0.36445 1.498951,-0.50887 1.966141,-0.40626 1.10053,0.24172 2.534764,1.80841 3.339067,3.64745 0.474369,1.08464 1.050311,1.89884 1.680935,2.37631 0.527625,0.39949 1.781262,1.44128 2.78586,2.31511 1.48263,1.28962 2.005711,1.59182 2.778125,1.605 0.52337,0.009 1.546895,0.29668 2.274499,0.63944 1.904678,0.89725 3.155794,0.84377 5.185647,-0.22166 z m -4.166386,-0.43278 c -0.861247,-0.34669 -1.005979,-0.79357 -0.440241,-1.35931 0.582647,-0.58265 2.112603,-0.90408 3.110783,-0.65355 0.807177,0.20259 0.947272,1.32368 0.212801,1.7029 -0.758979,0.39188 -2.274996,0.55485 -2.883343,0.30996 z m -4.788727,-2.9778 c -1.361996,-0.95211 -1.03686,-2.3151 0.552257,-2.3151 0.427899,0 1.295481,0.25844 1.927959,0.57431 2.016666,1.00718 1.788825,2.3361 -0.400518,2.3361 -0.844871,0 -1.493842,-0.18576 -2.079698,-0.59531 z m 9.499064,-0.65089 c -0.441042,-0.82409 0.486454,-2.09237 1.823,-2.49281 1.229275,-0.3683 1.920621,-0.12207 2.049133,0.72983 0.207188,1.37342 -3.240518,2.94317 -3.872133,1.76298 z M 73.628606,217.7706 c -1.218574,-1.24638 -1.037451,-2.86019 0.32101,-2.86019 0.684235,0 2.293429,1.73973 2.293429,2.47947 0,1.42088 -1.398399,1.62452 -2.614439,0.38072 z m 19.286039,-0.87238 c -0.751056,-0.90496 0.795286,-3.31072 2.128026,-3.31072 1.597603,0 1.494499,1.83691 -0.176898,3.15163 -0.826981,0.65051 -1.49789,0.70521 -1.951128,0.15909 z m -28.936644,-3.50916 c -0.576089,-1.12563 -0.803913,-2.92887 -0.427361,-3.38259 0.433129,-0.52189 1.141572,-0.48909 1.653468,0.0765 0.578177,0.63888 0.889404,3.11407 0.457061,3.63501 -0.514321,0.61972 -1.273582,0.47132 -1.683168,-0.32897 z m 34.845467,-0.21105 c -0.25824,-0.67296 0.09565,-2.50527 0.589202,-3.05063 0.519847,-0.57443 1.43785,-0.66615 1.91287,-0.19113 0.48123,0.48122 0.38209,1.4799 -0.26038,2.62303 -0.46003,0.81851 -0.73154,1.02822 -1.331225,1.02822 -0.435864,0 -0.819552,-0.17257 -0.910467,-0.40949 z M 68.923652,212.7276 c -0.292857,-0.32742 -0.684953,-0.98156 -0.871323,-1.45365 -0.290074,-0.73476 -0.276316,-0.95378 0.09557,-1.52135 0.238935,-0.36466 0.558572,-0.66302 0.710305,-0.66302 1.365364,0 2.715062,2.97644 1.775673,3.91583 -0.484377,0.48438 -1.120994,0.38097 -1.710226,-0.27781 z M 64.918878,206.92 c -0.174625,-0.17463 -0.315744,-0.79971 -0.313599,-1.38907 0.0074,-2.03409 1.063166,-3.07977 2.132452,-2.11208 0.615838,0.55733 0.640432,1.14098 0.102343,2.42881 -0.564836,1.35184 -1.255941,1.73759 -1.921196,1.07234 z m 4.974167,13.95274 c 0,-0.66472 -1.276518,-2.33769 -2.133786,-2.79649 -0.610139,-0.32654 -1.307996,-0.0575 -1.298041,0.50049 0.0138,0.77329 2.296146,2.94826 3.093823,2.94826 0.185902,0 0.338004,-0.29352 0.338004,-0.65226 z m -46.028189,16.54465 c -0.183344,-0.34258 -0.273892,-8.90842 -0.273892,-25.91027 0,-22.73676 0.04357,-25.44206 0.415774,-25.81426 0.346994,-0.347 1.198941,-0.41578 5.150065,-0.41578 4.409867,0 4.753061,0.0351 5.008185,0.51177 0.182117,0.34029 0.273892,7.45936 0.273892,21.24604 0,15.77388 0.07596,20.81023 0.3175,21.05177 0.234204,0.23421 2.623995,0.3175 9.109226,0.3175 7.6397,0 8.846206,0.0545 9.207499,0.41578 0.613068,0.61306 0.613068,8.08038 0,8.69345 -0.36769,0.36769 -2.06485,0.41577 -14.675065,0.41577 -13.826954,0 -14.267596,-0.0155 -14.533184,-0.51177 z m 92.118604,0.19427 c -0.46047,-0.46047 -0.46047,-51.5566 0,-52.01708 0.23891,-0.23891 3.77052,-0.3175 14.2686,-0.3175 12.33004,0 13.99941,0.0483 14.36687,0.41578 0.3431,0.34309 0.41578,1.15083 0.41578,4.62089 0,3.8867 -0.0388,4.22587 -0.51177,4.47902 -0.32266,0.17268 -3.68876,0.27389 -9.10923,0.27389 -7.46309,0 -8.65231,0.0549 -9.01323,0.41578 -0.35123,0.35123 -0.41577,1.26713 -0.41577,5.90021 0,3.91289 0.091,5.57541 0.3175,5.80193 0.2316,0.23161 2.29305,0.3175 7.62,0.3175 5.32694,0 7.38839,0.0859 7.62,0.3175 0.22009,0.22009 0.3175,1.59719 0.3175,4.48861 0,3.85306 -0.039,4.19199 -0.51177,4.445 -0.31723,0.16977 -3.28075,0.27389 -7.7959,0.27389 -6.93082,0 -7.29742,0.0248 -7.55802,0.51177 -0.1744,0.32587 -0.27389,4.00699 -0.27389,10.13354 0,7.13082 -0.0822,9.70397 -0.3175,9.93927 -0.22145,0.22144 -1.6463,0.3175 -4.70959,0.3175 -3.06328,0 -4.48814,-0.0961 -4.70958,-0.3175 z m 48.15416,0 c -0.24153,-0.24153 -0.3175,-5.26983 -0.3175,-21.01547 0,-18.46357 -0.0449,-20.74286 -0.41577,-21.11375 -0.35202,-0.35202 -1.28226,-0.41578 -6.06652,-0.41578 -4.78426,0 -5.7145,-0.0637 -6.06652,-0.41577 -0.34168,-0.34168 -0.41577,-1.13593 -0.41577,-4.45691 0,-3.57897 0.0553,-4.09121 0.48385,-4.47902 0.43981,-0.39802 2.05273,-0.43788 17.71778,-0.43788 16.76788,0 17.24132,0.0138 17.50781,0.51177 0.15387,0.28751 0.27389,2.25027 0.27389,4.47902 0,3.25381 -0.0748,4.04202 -0.41577,4.38302 -0.35206,0.35206 -1.28313,0.41577 -6.07611,0.41577 -5.32542,0 -5.67654,0.0303 -5.93422,0.51178 -0.18205,0.34015 -0.2739,7.38773 -0.2739,21.01547 0,18.28695 -0.045,20.54866 -0.41577,20.91948 -0.34484,0.34484 -1.17093,0.41577 -4.84188,0.41577 -3.08974,0 -4.52196,-0.0959 -4.7436,-0.3175 z M 67.021696,176.46061 c -0.200874,-0.24203 -0.312741,-4.80955 -0.363126,-14.82641 -0.06301,-12.52636 -0.126283,-14.51041 -0.469692,-14.7274 -0.218281,-0.13793 -2.26792,-0.2526 -4.554753,-0.25483 -5.021551,-0.005 -4.794398,0.18396 -4.662847,-3.87676 0.06787,-2.09515 0.185294,-2.82245 0.486351,-3.01246 0.23508,-0.14837 5.530614,-0.25213 12.989721,-0.25453 11.866637,-0.004 12.618099,0.0239 13.030729,0.4798 0.620629,0.68579 0.638128,5.6281 0.02211,6.24412 -0.342938,0.34294 -1.149109,0.41578 -4.601901,0.41578 -3.573124,0 -4.209644,0.0613 -4.346726,0.41851 -0.08833,0.23018 -0.160599,6.87387 -0.160599,14.76375 0,10.80463 -0.07836,14.4236 -0.3175,14.66274 -0.466194,0.46619 -6.661603,0.43781 -7.051765,-0.0323 z m 23.826348,0.0323 c -0.459178,-0.45918 -0.459178,-36.21207 0,-36.67125 0.468293,-0.4683 6.66177,-0.43762 7.053956,0.0349 0.193158,0.23274 0.316487,2.72639 0.363126,7.34219 l 0.07063,6.98974 6.283854,0.0709 6.28385,0.0709 v -6.99735 c 0,-6.00845 0.0588,-7.0561 0.41577,-7.41312 0.33071,-0.33071 1.05066,-0.41577 3.51896,-0.41577 2.06081,0 3.20984,0.10665 3.42069,0.3175 0.45917,0.45918 0.45917,36.21207 0,36.67125 -0.38602,0.38601 -6.22829,0.43635 -6.82625,0.0588 -0.33221,-0.20974 -0.41844,-1.47018 -0.52917,-7.73501 l -0.13229,-7.48444 -5.91981,-0.0713 c -4.14409,-0.0499 -6.029008,0.0193 -6.283852,0.23083 -0.292662,0.24289 -0.364044,1.7121 -0.364044,7.49286 0,5.24001 -0.08613,7.27686 -0.3175,7.50823 -0.211958,0.21195 -1.381713,0.3175 -3.518958,0.3175 -2.137245,0 -3.307,-0.10555 -3.518958,-0.3175 z m 37.451766,0.0317 c -0.43381,-0.25268 -0.46302,-1.40871 -0.46302,-18.32758 0,-13.69225 0.0768,-18.13465 0.3175,-18.37539 0.23614,-0.23614 2.97377,-0.3175 10.68323,-0.3175 9.3331,0 10.4019,0.0437 10.72885,0.43893 0.47649,0.57596 0.47547,5.77203 -0.001,6.24948 -0.2299,0.23027 -2.27555,0.36104 -7.12284,0.45534 l -6.8003,0.13229 -0.074,3.53526 c -0.0499,2.38102 0.0255,3.6552 0.23083,3.90261 0.24226,0.29189 1.43743,0.36734 5.81941,0.36734 6.46357,0 6.06233,-0.2144 6.06233,3.23932 0,3.38779 0.32197,3.21784 -6.39431,3.37526 l -5.64423,0.13229 v 3.94971 3.94972 l 0.79375,0.22351 c 0.43656,0.12294 3.50721,0.20178 6.82366,0.1752 4.42588,-0.0355 6.11507,0.037 6.35,0.27234 0.47198,0.47281 0.43591,5.89378 -0.043,6.47044 -0.32641,0.393 -1.39642,0.43639 -10.58333,0.42916 -6.44816,-0.005 -10.3911,-0.10758 -10.68323,-0.27773 z m -86.713151,-45.2185 c -1.258675,-1.25867 -0.537631,-2.03912 2.906387,-3.14583 13.137945,-4.2218 27.298696,-6.7121 45.640623,-8.02633 6.105869,-0.4375 25.268191,-0.42886 31.088541,0.014 16.84393,1.28166 32.08811,3.96721 43.65625,7.69086 3.61427,1.1634 4.49791,1.63881 4.49791,2.41992 0,0.75813 -1.00018,1.64905 -1.67954,1.49606 -10.09236,-2.27274 -13.90275,-3.00444 -20.81004,-3.9961 -13.81411,-1.98326 -26.62762,-2.85192 -41.80416,-2.83401 -22.590772,0.0267 -40.343679,1.87665 -59.981344,6.25049 -0.989375,0.22036 -2.064942,0.45994 -2.390148,0.53239 -0.375546,0.0837 -0.785826,-0.0628 -1.124479,-0.40147 z M 69.94982,113.3264 c -7.334821,-2.09717 -12.844891,-9.14427 -14.751922,-18.866967 -0.574203,-2.927481 -0.796657,-9.51465 -0.426989,-12.643722 0.546274,-4.623967 1.85106,-8.578762 3.755686,-11.383448 2.446037,-3.60195 5.458338,-4.770665 9.934708,-3.854478 2.243849,0.459252 4.526871,1.283083 25.376532,9.157148 29.774255,11.244517 28.734765,10.883781 31.485415,10.926533 2.14099,0.03328 3.75048,-0.56449 5.59957,-2.079673 1.49512,-1.225139 2.67636,-2.914305 7.38609,-10.561997 6.83753,-11.102855 18.92073,-30.395228 19.59566,-31.286978 0.39224,-0.518244 0.88511,-0.859896 1.2405,-0.859896 0.32432,0 1.71725,0.685107 3.09539,1.52246 1.79778,1.092328 2.52937,1.688617 2.58945,2.110577 0.0548,0.385135 -1.44076,3.169956 -4.33335,8.068686 -2.42941,4.114312 -7.38534,12.519838 -11.01317,18.678947 -11.72898,19.912732 -14.01302,23.401674 -17.80726,27.201172 -4.80317,4.809826 -6.45384,5.354326 -29.63621,9.775936 -22.440266,4.28007 -24.436927,4.61167 -27.637943,4.59004 -1.839461,-0.0124 -3.355384,-0.18075 -4.452157,-0.49434 z"
       id="path1" /></g></svg>
