<?xml version="1.0" encoding="UTF-8" standalone="no"?>
<!-- Created with Inkscape (http://www.inkscape.org/) -->

<svg
   width="223.53197mm"
   height="100.59166mm"
   viewBox="0 0 223.53197 100.59166"
   version="1.1"
   id="svg1"
   xml:space="preserve"
   xmlns="http://www.w3.org/2000/svg"
   xmlns:svg="http://www.w3.org/2000/svg"><defs
     id="defs1" /><g
     id="layer1"
     transform="translate(6.7951781,-97.613706)"><path
       style="fill:#f9f9f9"
       d="m 131.30973,197.77864 c -0.42641,-0.3561 -0.65022,-1.07397 -0.96927,-3.10885 -0.80629,-5.14259 -1.71543,-7.58748 -3.35757,-9.02929 -0.48834,-0.42877 -1.93825,-1.31102 -3.22204,-1.96056 -4.18984,-2.11989 -7.36327,-5.27549 -9.40115,-9.34836 -1.6551,-3.30785 -2.00292,-4.9559 -1.98963,-9.42741 0.0101,-3.4151 0.0872,-4.06249 0.70186,-5.8944 2.17457,-6.48141 7.53779,-11.49578 14.2357,-13.30973 2.56221,-0.69391 7.18331,-0.63586 9.90995,0.12449 9.45649,2.63705 15.98349,12.32432 14.68645,21.79739 -1.00828,7.36402 -5.17239,12.96636 -12.29328,16.53919 -1.16417,0.58411 -2.37768,1.3424 -2.69669,1.68508 -1.31111,1.40842 -2.61726,5.50712 -3.13914,9.85063 -0.27236,2.26686 -1.2525,3.09457 -2.46519,2.08182 z m 4.33227,-17.39618 c 4.61265,-0.96511 8.7872,-4.11833 10.89038,-8.22596 1.50574,-2.9408 1.81335,-4.25746 1.78708,-7.64921 -0.0186,-2.40723 -0.14591,-3.28618 -0.73615,-5.08384 -2.71279,-8.26226 -11.19577,-12.94441 -19.71598,-10.88214 -2.75463,0.66674 -5.02228,1.97484 -7.14466,4.12142 -5.13946,5.19806 -6.17422,11.95041 -2.88647,18.83561 0.83744,1.75377 1.49468,2.6568 3.08498,4.23873 4.12397,4.10226 9.38376,5.76208 14.72082,4.64539 z m -2.64583,-0.59904 c -1.22199,-0.27603 -1.62256,-1.40031 -0.67886,-1.90536 1.28934,-0.69003 3.10587,0.0236 2.50101,0.98247 -0.40091,0.63556 -1.23159,1.05629 -1.82215,0.92289 z m -7.07436,-1.66947 c -0.99563,-0.58005 -1.17784,-1.86914 -0.31122,-2.2017 1.06042,-0.40692 2.87942,1.30172 2.2251,2.09011 -0.37582,0.45284 -1.24153,0.50331 -1.91388,0.11159 z m 12.74621,-0.92677 c -0.77521,-0.93406 1.30451,-2.76193 2.24984,-1.97738 0.61248,0.50831 0.50164,1.22765 -0.28446,1.846 -0.83261,0.65493 -1.49417,0.69916 -1.96538,0.13138 z m -8.78071,-1.45629 c -0.53476,-0.31147 -0.60605,-1.05286 -0.14552,-1.51339 0.62078,-0.62078 3.12208,-0.23177 3.12208,0.48556 0,0.1404 -0.23812,0.4934 -0.52916,0.78444 -0.56837,0.56836 -1.69678,0.68058 -2.4474,0.24339 z m 5.41073,-0.82547 c -0.51264,-0.51264 -0.36772,-1.19209 0.37964,-1.77997 0.78754,-0.61948 1.42905,-0.6976 1.89578,-0.23087 0.51264,0.51264 0.36772,1.19209 -0.37964,1.77997 -0.78754,0.61947 -1.42905,0.6976 -1.89578,0.23087 z m -13.9049,-1.38966 c -0.7107,-0.65865 -0.9387,-1.81831 -0.42048,-2.1386 0.95002,-0.58714 2.55872,0.92608 2.25805,2.12404 -0.21401,0.85268 -0.92713,0.85833 -1.83757,0.0146 z m 21.70129,0.20785 c -0.37652,-0.37652 -0.14714,-1.41524 0.46904,-2.12396 0.53061,-0.6103 0.73064,-0.69055 1.12448,-0.45109 0.69059,0.41989 0.73096,1.46493 0.0834,2.15997 -0.53692,0.57631 -1.32151,0.77052 -1.67695,0.41508 z m -17.51582,-1.15615 c -0.61649,-0.64348 -0.71312,-0.89361 -0.4855,-1.25677 0.4343,-0.69291 1.3893,-0.70749 2.10812,-0.0322 1.02865,0.96637 0.74494,2.09234 -0.5272,2.09234 -0.17916,0 -0.67209,-0.36152 -1.09542,-0.80337 z m 14.08838,-1.47754 c -0.38432,-0.38432 -0.16997,-1.34845 0.42383,-1.9063 1.31761,-1.23782 2.63927,-0.19337 1.5722,1.24245 -0.50224,0.6758 -1.61424,1.04564 -1.99603,0.66385 z m -22.03139,-2.51008 c -0.56764,-1.09769 -0.31548,-2.15333 0.48711,-2.0392 0.68135,0.0969 1.61201,1.76379 1.3565,2.42963 -0.28847,0.75174 -1.37159,0.52236 -1.84361,-0.39043 z m 3.95379,-0.6386 c -0.87997,-0.87998 -0.77104,-1.81518 0.22478,-1.92985 0.51619,-0.0594 0.91523,0.12268 1.38906,0.63395 0.77901,0.84057 0.80351,0.99275 0.24904,1.54722 -0.58665,0.58665 -1.09325,0.5183 -1.86288,-0.25132 z m 23.44291,0.003 c -0.2671,-0.32185 -0.25838,-0.59262 0.0448,-1.38906 0.31776,-0.83489 0.4987,-0.9893 1.15928,-0.9893 0.73276,0 0.78085,0.0631 0.753,0.98738 -0.0478,1.58551 -1.14711,2.36687 -1.95703,1.39098 z m -27.18353,-4.27338 c -0.40017,-0.16147 -0.43709,-1.77749 -0.0568,-2.48799 0.60958,-1.13901 1.99912,-0.29266 1.88915,1.15064 -0.099,1.29962 -0.7494,1.77432 -1.83231,1.33735 z m -30.077452,21.98446 c -0.370563,-0.37056 -0.415774,-2.56709 -0.415774,-20.19962 0,-18.83025 0.02332,-19.80495 0.483854,-20.22172 0.393881,-0.35646 1.070375,-0.43713 3.638021,-0.43383 1.734791,0.002 3.33276,0.11691 3.551041,0.25485 0.344599,0.21776 0.406356,2.43026 0.468851,16.79699 l 0.07198,16.54619 h 7.023019 c 4.33517,0 7.21889,0.10482 7.53479,0.27389 0.46327,0.24793 0.51178,0.58144 0.51178,3.51896 0,2.17116 -0.10508,3.35013 -0.3175,3.56256 -0.23668,0.23668 -3.09437,0.3175 -11.225892,0.3175 -9.563943,0 -10.959636,-0.0512 -11.324166,-0.41577 z m 71.074642,0.0983 c -0.49825,-0.49825 -0.45544,-39.98447 0.0438,-40.3988 0.25973,-0.21555 3.55106,-0.28045 11.70781,-0.23084 l 11.34652,0.069 v 3.70416 3.70417 l -7.54062,0.13229 -7.54063,0.13229 -0.0725,4.43178 -0.0725,4.43177 h 6.218 6.21801 l 0.43675,0.66656 c 0.35981,0.54914 0.41579,1.17527 0.31777,3.55417 -0.075,1.81906 -0.24629,3.04101 -0.46304,3.30218 -0.29442,0.35476 -1.23669,0.41459 -6.52939,0.41459 h -6.18531 v 7.69031 c 0,4.79515 -0.10311,7.88297 -0.27389,8.20208 -0.24966,0.46649 -0.58445,0.51177 -3.78354,0.51177 -2.37695,0 -3.61212,-0.10247 -3.82715,-0.3175 z m 39.15833,0 c -0.24004,-0.24004 -0.3175,-4.27449 -0.3175,-16.53646 v -16.21895 h -5.14048 c -4.32038,0 -5.2068,-0.0663 -5.55625,-0.41578 -0.33264,-0.33264 -0.41577,-1.06268 -0.41577,-3.65125 0,-2.1637 0.10517,-3.34065 0.3175,-3.55297 0.23919,-0.23919 3.88055,-0.3175 14.76375,-0.3175 10.88319,0 14.52456,0.0783 14.76375,0.3175 0.21378,0.21378 0.3175,1.4208 0.3175,3.69485 0,3.06831 -0.0468,3.40242 -0.51178,3.65125 -0.30006,0.16059 -2.54383,0.2739 -5.42395,0.2739 h -4.91219 v 16.21895 c 0,12.26197 -0.0775,16.29642 -0.3175,16.53646 -0.21463,0.21463 -1.44051,0.3175 -3.78354,0.3175 -2.34303,0 -3.56891,-0.10287 -3.78354,-0.3175 z M -6.3965761,163.71841 c -1.0492867,-1.04929 -0.1248016,-1.71602 3.9459654,-2.84581 23.4418317,-6.506 55.0835617,-6.74728 77.5030307,-0.59099 5.608373,1.54004 6.723065,2.09975 6.312512,3.16963 -0.287693,0.74972 -1.363314,0.70254 -5.425053,-0.23794 -11.224808,-2.59906 -23.533224,-3.86644 -37.527734,-3.86415 -14.393539,0.002 -25.891857,1.06562 -37.70763817,3.48691 -7.04348353,1.44335 -6.59571603,1.38772 -7.10108293,0.88235 z M 18.141025,150.75273 C 12.44254,149.51297 7.7632933,144.10421 6.066857,136.79616 c -0.8119602,-3.49783 -0.8002649,-9.9774 0.023527,-13.0347 1.4128904,-5.24359 3.8410771,-8.21144 7.284012,-8.90288 2.608535,-0.52387 3.897524,-0.0699 32.366179,11.3994 12.096753,4.87347 12.663415,5.02016 14.991903,3.88094 2.655271,-1.2991 5.330459,-4.74127 12.256269,-15.77017 7.456433,-11.87388 9.961614,-15.78561 10.447322,-16.313049 0.409002,-0.444142 0.681202,-0.525583 1.230159,-0.368057 1.009665,0.289727 3.941201,1.800041 4.150159,2.138142 0.338211,0.547234 -0.141164,1.501474 -3.390231,6.748534 -18.256712,29.48354 -19.417541,31.24733 -22.462017,34.12918 -2.59673,2.45802 -4.614189,3.56527 -7.90831,4.34033 -4.051723,0.95333 -22.68866,4.42481 -30.009657,5.58987 -3.669505,0.58397 -4.687473,0.60151 -6.905147,0.11903 z M 118.70381,139.71132 c -0.07,-0.1867 -0.15704,-5.75679 -0.19348,-12.37799 l -0.0662,-12.03854 -3.43958,-0.13229 c -1.89177,-0.0728 -3.58841,-0.22861 -3.77031,-0.34634 -0.48142,-0.31158 -0.4549,-4.77748 0.0308,-5.18054 0.25941,-0.21529 3.37885,-0.28048 11.04636,-0.23084 l 10.68486,0.0692 0.0766,2.48982 c 0.0474,1.53958 -0.033,2.59986 -0.21063,2.77813 -0.16657,0.16717 -1.86625,0.34388 -4.04538,0.42059 l -3.75812,0.13229 -0.13229,12.30313 -0.1323,12.30312 -2.98152,0.0749 c -2.23877,0.0562 -3.01322,-0.01 -3.10875,-0.26458 z m 19.35096,-0.0881 c -0.0901,-0.23479 -0.16381,-7.01054 -0.16381,-15.05722 0,-12.19755 0.0614,-14.68131 0.36936,-14.93688 0.24172,-0.20062 1.31598,-0.28038 3.10885,-0.23084 l 2.7395,0.0757 0.071,6.15703 0.071,6.15702 5.35292,-0.0716 5.35292,-0.0716 0.0714,-5.80009 c 0.046,-3.73465 0.17531,-5.92525 0.36313,-6.15156 0.38653,-0.46575 5.26951,-0.49469 5.73023,-0.034 0.37143,0.37142 0.46204,29.47213 0.0936,30.05284 -0.15936,0.25115 -0.97162,0.32037 -3.10481,0.26458 l -2.88898,-0.0755 -0.1323,-6.08541 -0.13229,-6.08542 h -5.29166 -5.29167 l -0.13229,6.08542 -0.13229,6.08541 -2.94505,0.0745 c -2.5103,0.0635 -2.96922,0.0115 -3.10885,-0.35237 z m 29.78702,0.0926 c -0.4582,-0.4582 -0.4582,-29.59846 0,-30.05666 0.45415,-0.45415 16.90251,-0.45415 17.35667,0 0.42664,0.42664 0.42664,4.4946 0,4.92125 -0.2261,0.22609 -1.86385,0.3175 -5.68855,0.3175 h -5.37104 v 3.30729 3.30729 h 4.445 c 3.10445,0 4.54076,0.0958 4.7625,0.3175 0.19573,0.19572 0.3175,1.15622 0.3175,2.50423 0,1.89117 -0.0692,2.22376 -0.51177,2.46063 -0.29186,0.1562 -2.33834,0.27389 -4.7625,0.27389 h -4.25073 v 3.57188 3.57187 h 5.37104 c 3.8247,0 5.46245,0.0914 5.68855,0.3175 0.19772,0.19772 0.3175,1.17593 0.3175,2.59292 0,1.41699 -0.11978,2.39519 -0.3175,2.59291 -0.45416,0.45415 -16.90252,0.45415 -17.35667,0 z"
       id="path1" /></g></svg>
